# xmcd CD database file
#
# Track frame offsets:
#	150
#	17627
#	36077
#	51940
#
# Disc length: 795 seconds
#
# Revision: 0
# Processed by: cddbd v1.5PL3 Copyright (c) Steve Scherf et al.
# Submitted via: CDex 1.50beta8
#
DISCID=2a031904
DTITLE=ANGEL - PEACE
DYEAR=2003
DGENRE=Pop
TTITLE0=陽のあたる場所
TTITLE1=GIRLS BE
TTITLE2=花のうた
TTITLE3=POETRY〜STORY OF PEACE〜
EXTD=YEAR: 2003
EXTT0=
EXTT1=
EXTT2=
EXTT3=
PLAYORDER=
